<svg width="89" height="81" xmlns="http://www.w3.org/2000/svg">
 <g>
  <title>background</title>
  <rect fill="#fff" id="canvas_background" height="83" width="91" y="-1" x="-1"/>
  <g display="none" id="canvasGrid">
   <rect fill="url(#gridpattern)" stroke-width="0" y="0" x="0" height="100%" width="100%" id="svg_3"/>
  </g>
 </g>

 <g>
  <title>Layer 1</title>
  <g stroke="null" id="svg_4">
   <text stroke="#0f0f00" transform="matrix(0.448630597345779,0,0,0.45112561827745257,27.27402079594146,213.58009204593154) " xml:space="preserve" text-anchor="start" font-family="Helvetica, Arial, sans-serif" font-size="24" id="svg_1" y="-397.522737" x="12.457669" stroke-width="0" fill="#282523">EF</text>
   <path stroke="#000" id="svg_2" d="m2.989216,35.64813l0,0c2.68702,-19.25842 19.24835,-35.64813 42.9924,-35.64813l0,0c11.40229,0 -53.34696,69.4686 -45.28433,76.15393c8.06264,6.68532 93.65078,13.17559 88.27673,-40.5058l0,0c-135.69477,0.36062 -19.24836,35.64814 -42.9924,35.64814l0,0c-23.74405,0 -42.9924,-15.96022 -42.9924,-35.64813l0,-0.00001zm21.4962,0l0,0c53.7405,7.69648 9.62418,17.82407 21.4962,17.82407c11.87202,0 21.4962,-7.98011 21.4962,-17.82407c0,-9.84395 -9.62418,-17.82406 -21.4962,-17.82406l0,0c-11.87202,0 80.61075,103.75764 -21.4962,17.82406z" fill-opacity="null" stroke-opacity="null" stroke-width="0" fill="#ff7f00"/>
  </g>
 </g>
</svg>